<?xml version="1.0" encoding="UTF-8"?>
<svg id="Layer_1" data-name="Layer 1" xmlns="http://www.w3.org/2000/svg" viewBox="0 0 1875.56 447.27">
  <defs>
    <style>
      .cls-1 {
        fill: #ccc;
      }

      .cls-2 {
        fill: #95c552;
      }

      .cls-3 {
        fill: #6e6e6e;
      }
    </style>
  </defs>
  <g id="tenetly-on-white-1">
    <path class="cls-1" d="M164.66,164.66c-42.53,0-77,34.47-77,76.99v13.19c0,27.13,10.78,53.15,29.96,72.34,19.19,19.19,45.21,29.96,72.34,29.96h91.84l-.3-77h-91.53c-13.97,0-25.3-11.33-25.3-25.3v-90.18ZM164.66,164.66"/>
    <path class="cls-2" d="M87.67,0v77c0,42.52,34.47,77,77,77h86.49l-.24-77h-86.25V0h-77ZM87.67,0"/>
    <path class="cls-3" d="M0,164.66c42.53,0,77-34.48,77-77H0v77ZM0,164.66"/>
    <path class="cls-1" d="M548.7,137.58c-24.19-22.96-56.42-34.43-96.71-34.43-44.26,0-79.01,11.34-104.26,34-25.26,22.67-37.88,53.78-37.88,93.34s12.85,71.57,38.57,93.88c25.71,22.31,61.76,33.46,108.15,33.46,19.38,0,38.76-1.77,58.14-5.31,19.38-3.54,38.76-8.77,58.14-15.7v-59.77c-19.08,9.82-37.65,17.15-55.74,21.98-18.08,4.84-35.75,7.25-52.99,7.25-21.37,0-38-4.55-49.9-13.64-11.9-9.1-18.85-22.74-20.83-40.93h191.59v-22.09c0-38.4-12.1-69.09-36.28-92.04h0ZM394.3,203.85c2.44-15.88,8.62-28.04,18.54-36.49,9.92-8.45,22.81-12.67,38.68-12.67,14.65,0,26.51,4.51,35.59,13.53,9.08,9.02,13.62,20.9,13.62,35.63h-106.44ZM868.61,128.92c-15.34-17.18-37.81-25.77-67.41-25.77-16.79,0-32.12,3.36-46.01,10.07-13.89,6.71-27.01,17.15-39.37,31.3v-35.52h-81.94v242.55h81.94v-119.33c0-22.09,4.88-39.38,14.65-51.87,9.76-12.49,23.19-18.73,40.29-18.73,7.02,0,13.28,1.41,18.77,4.22,5.49,2.81,9.84,6.75,13.05,11.8,2.44,3.76,4.16,9.6,5.15,17.54.99,7.94,1.49,22.38,1.49,43.31v113.05h82.4v-147.7c0-32.77-7.67-57.75-23-74.93h0ZM1174.11,137.58c-24.19-22.96-56.42-34.43-96.71-34.43-44.26,0-79.01,11.34-104.26,34-25.26,22.67-37.88,53.78-37.88,93.34s12.85,71.57,38.57,93.88c25.71,22.31,61.76,33.46,108.15,33.46,19.38,0,38.76-1.77,58.14-5.31,19.38-3.54,38.76-8.77,58.14-15.7v-59.77c-19.08,9.82-37.65,17.15-55.74,21.98-18.08,4.84-35.75,7.25-52.99,7.25-21.37,0-38-4.55-49.9-13.64-11.9-9.1-18.85-22.74-20.83-40.93h191.59v-22.09c0-38.4-12.1-69.09-36.28-92.04h0ZM1019.72,203.85c2.44-15.88,8.62-28.04,18.54-36.49,9.92-8.45,22.81-12.67,38.68-12.67,14.65,0,26.51,4.51,35.59,13.53,9.08,9.02,13.62,20.9,13.62,35.63h-106.44ZM1266.85,40.13v68.87h-40.74v55.44h40.74v102.87c0,30.61,6.75,52.3,20.26,65.08,13.5,12.78,36.43,19.17,68.78,19.17h70.27v-55.44h-42.12c-14.04,0-23.43-1.98-28.15-5.96-4.73-3.97-7.1-11.59-7.1-22.85v-102.87h84.46v-55.44h-84.46V40.13h-81.94ZM1470.26,351.55h81.94V14.57h-81.94v336.98h0ZM1698.39,360.86l-2.29,6.71c-3.51,10.83-8.43,18.33-14.76,22.52-6.33,4.19-16.44,6.28-30.33,6.28h-25.64v50.89h47.38c23.65,0,42.69-5.38,57.11-16.13,14.42-10.76,27.05-29.64,37.88-56.63l107.81-265.51h-81.94l-58.6,164.59-68.9-164.59h-81.94l114.22,251.87h0Z"/>
  </g>
</svg>